<svg width="150" height="42" viewBox="0 0 150 42" fill="none" xmlns="http://www.w3.org/2000/svg">
<path d="M33.925 0H3.77501C1.7 0 0 1.675 0 3.75V3.775V38.225C0 40.3 1.675 42 3.75001 42H3.77501H33.925C36.0001 42 37.7001 40.325 37.7001 38.25V38.225V3.775C37.7001 1.7 36.0251 0 33.95 0C33.95 0 33.95 0 33.925 0ZM35.6251 38.225C35.6501 39.15 34.9 39.9 34 39.9C33.975 39.9 33.975 39.9 33.95 39.9H3.77501C2.85 39.925 2.1 39.175 2.1 38.275C2.1 38.25 2.1 38.25 2.1 38.225V3.775C2.075 2.85 2.825 2.1 3.72501 2.1C3.75001 2.1 3.75 2.1 3.77501 2.1H33.925C34.85 2.075 35.6 2.825 35.6 3.725C35.6 3.75 35.6 3.75 35.6 3.775V38.225H35.6251ZM9.47501 35.7L14.2 31.475L9.47501 27.25V35.7ZM26.475 18.7C25.125 17.4 23.3 16.725 21.425 16.8C18.75 16.875 16.075 17.35 13.55 18.275V6.325H9.35001V24.5L12.3 23.125C12.3 23.125 17.125 20.925 21.35 20.925C23.45 20.925 23.975 22.075 23.975 23.125V35.725H28.2V23.125C28.275 21.45 27.65 19.85 26.475 18.7ZM20.925 13.125H25.15C26.85 11.225 27.95 8.85 28.275 6.3H24.05C23.575 8.8 22.5 11.15 20.925 13.125ZM136.95 23V13.775H141.175V23C141.175 25.1 141.9 26.15 143.575 26.15C145.25 26.15 145.875 25.2 145.875 23V13.775H150V23.125C150 27.225 148 29.65 143.475 29.65C138.95 29.5 136.95 27.1 136.95 23ZM119.325 13.775H123.55V19.45L127.85 13.775H132.675L127.425 19.875L133.1 29.325H128.375L124.7 23.125L123.55 24.5V29.325H119.325V13.775ZM99.3751 21.425C99.3751 15.75 103.275 13.35 107.05 13.35C110.825 13.35 114.725 15.75 114.725 21.425C114.725 27.1 110.825 29.5 107.025 29.5C103.25 29.5 99.3751 27.2 99.3751 21.425ZM110.4 21.425C110.4 18.575 109.15 16.8 106.925 16.8C104.725 16.8 103.475 18.6 103.475 21.425C103.475 24.25 104.725 26.15 106.925 26.15C109.125 26.15 110.4 24.35 110.4 21.425ZM82.4501 13.775H88.5501C92.5251 13.775 94.9501 15.15 94.9501 18.825C94.9501 21.225 93.9001 22.725 91.9001 23.35L95.1501 29.35H90.7501L87.7001 24H86.5501V29.35H82.4501V13.775ZM88.4501 20.7C90.1251 20.7 90.9751 20.175 90.9751 18.9C90.9751 17.625 90.2501 17.1 88.4501 17.1H86.6501V20.675L88.4501 20.7ZM66.4001 13.775H77.5251V17.25H70.6001V19.75H75.5251V23H70.6001V25.825H77.8251V29.175H66.3751L66.4001 13.775ZM47.3751 13.775H51.6001V19.55H56.7501V13.775H60.9751V29.3H56.7501V23H51.6001V29.3H47.3751V13.775Z" fill="#430098"/>
</svg>
