<?xml version="1.0" encoding="UTF-8"?>
<svg width="512px" height="132px" viewBox="0 0 512 132" version="1.1" xmlns="http://www.w3.org/2000/svg" xmlns:xlink="http://www.w3.org/1999/xlink">
    <!-- Generator: Sketch 58 (84663) - https://sketch.com -->
    <title>logo-prismic</title>
    <desc>Created with Sketch.</desc>
    <g id="logo-prismic" stroke="none" stroke-width="1" fill="none" fill-rule="evenodd">
        <g id="Logo-Invert-Version">
            <path d="M168.800132,37.9282442 L171.974363,37.9282442 C174.140318,37.9282442 175.896171,39.6840976 175.896171,41.8500526 L175.896171,45.5633995 C175.896171,45.6785295 175.989503,45.7718609 176.104633,45.7718609 L176.104633,45.7718609 L176.104633,45.7718609 C177.911308,42.5762974 180.343334,40.2522861 183.400785,38.7997572 C186.458235,37.3472283 189.758842,36.6209748 193.302705,36.6209748 C197.124518,36.6209748 200.564098,37.329072 203.621548,38.7452876 C206.678999,40.1615033 209.284741,42.1042315 211.438854,44.5735306 C213.592967,47.0428297 215.225898,49.9478439 216.337699,53.2886603 C217.449499,56.6294767 218.00539,60.2244317 218.00539,64.0736332 C218.00539,67.9228347 217.414755,71.5177897 216.233468,74.8586061 C215.05218,78.1994225 213.401877,81.1044367 211.282508,83.5737358 C209.163139,86.0430349 206.609511,87.9857631 203.621548,89.4019788 C200.633585,90.8181944 197.367722,91.5262916 193.823859,91.5262916 C191.461283,91.5262916 189.37669,91.2721029 187.570014,90.7637178 C185.763339,90.2553327 184.16515,89.6017045 182.7754,88.8028136 C181.38565,88.0039227 180.20438,87.1505748 179.231555,86.2427443 C178.25873,85.3349137 177.459636,84.4452531 176.834248,83.5737358 C176.661553,83.5737358 176.521556,83.7137329 176.521556,83.886428 L176.521556,110.270877 C176.521556,112.914258 174.378672,115.057142 171.735291,115.057142 L168.800132,115.057142 C166.156751,115.057142 164.013867,112.914258 164.013867,110.270877 L164.013867,42.7145092 C164.013867,40.0711281 166.156751,37.9282442 168.800132,37.9282442 Z M205.497702,64.0736332 C205.497702,62.0400928 205.167641,60.0792082 204.50751,58.1909207 C203.847378,56.3026332 202.874568,54.63225 201.589049,53.1797211 C200.30353,51.7271923 198.757456,50.5651866 196.950781,49.6936693 C195.144106,48.822152 193.094255,48.3863998 190.801167,48.3863998 C188.50808,48.3863998 186.458229,48.822152 184.651554,49.6936693 C182.844878,50.5651866 181.298805,51.7271923 180.013286,53.1797211 C178.727767,54.63225 177.754956,56.3026332 177.094825,58.1909207 C176.434694,60.0792082 176.104633,62.0400928 176.104633,64.0736332 C176.104633,66.1071736 176.434694,68.0680582 177.094825,69.9563457 C177.754956,71.8446332 178.727767,73.5150164 180.013286,74.9675453 C181.298805,76.4200741 182.844878,77.5820798 184.651554,78.4535971 C186.458229,79.3251144 188.50808,79.7608666 190.801167,79.7608666 C193.094255,79.7608666 195.144106,79.3251144 196.950781,78.4535971 C198.757456,77.5820798 200.30353,76.4200741 201.589049,74.9675453 C202.874568,73.5150164 203.847378,71.8446332 204.50751,69.9563457 C205.167641,68.0680582 205.497702,66.1071736 205.497702,64.0736332 Z M236.028959,37.9282442 L239.610697,37.9282442 C241.896982,37.9282442 243.750383,39.7816451 243.750383,42.0679308 L243.750383,45.9991559 C243.750383,46.114286 243.843715,46.2076174 243.958845,46.2076174 L243.958845,46.2076174 L243.958845,46.2076174 C245.348595,43.1573068 247.328959,40.7969828 249.899997,39.1265746 C252.471035,37.4561664 255.424209,36.6209748 258.75961,36.6209748 C259.523972,36.6209748 260.270952,36.6936002 261.000571,36.838853 C261.000571,36.838853 261.000571,36.838853 261.000571,36.838853 C262.303327,37.0982065 263.241532,38.2416001 263.241536,39.5699222 L263.241536,46.7421672 C263.241496,48.1845211 262.072237,49.35378 260.629883,49.35378 C260.474573,49.35378 260.319573,49.3399259 260.166725,49.3123824 C260.166725,49.3123824 260.166725,49.3123824 260.166725,49.3123824 C259.159156,49.1308162 258.168974,49.0400346 257.196149,49.0400346 C254.277673,49.0400346 251.932505,49.602881 250.160574,50.7285909 C248.388642,51.8543008 247.033656,53.1434008 246.095575,54.5959297 C245.157493,56.0484586 244.532115,57.5009657 244.219422,58.9534945 C243.906728,60.4060234 243.750383,61.4954037 243.750383,62.2216681 L243.750383,85.4327572 C243.750383,88.0761383 241.607499,90.2190222 238.964118,90.2190222 L236.028959,90.2190222 C233.385578,90.2190222 231.242694,88.0761383 231.242694,85.4327572 L231.242694,42.7145092 C231.242694,40.0711281 233.385578,37.9282442 236.028959,37.9282442 Z M278.34664,37.9282442 L281.281799,37.9282442 C283.92518,37.9282442 286.068064,40.0711281 286.068064,42.7145092 L286.068064,85.4327572 C286.068064,88.0761383 283.92518,90.2190222 281.281799,90.2190222 L278.34664,90.2190222 C275.703259,90.2190222 273.560375,88.0761383 273.560375,85.4327572 L273.560375,42.7145092 C273.560375,40.0711281 275.703259,37.9282442 278.34664,37.9282442 Z M271.788452,20.1711676 C271.788452,18.0650007 272.535432,16.2312105 274.029413,14.669742 C275.523395,13.1082734 277.416901,12.3275509 279.709988,12.3275509 C282.003076,12.3275509 283.931326,13.0719608 285.494795,14.5608029 C287.058263,16.049645 287.839986,17.9197478 287.839986,20.1711676 C287.839986,22.4225873 287.058263,24.2926902 285.494795,25.7815323 C283.931326,27.2703744 282.003076,28.0147843 279.709988,28.0147843 C277.416901,28.0147843 275.523395,27.2340617 274.029413,25.6725932 C272.535432,24.1111246 271.788452,22.2773344 271.788452,20.1711676 Z M325.676165,49.8781042 C323.138361,48.0121217 320.879889,47.0791304 318.900747,47.0791304 C317.233047,47.0791304 315.600115,47.5148825 314.001902,48.3863998 C312.403689,49.2579171 311.604595,50.6741116 311.604595,52.6350255 C311.604595,54.2328073 312.264716,55.394813 313.584979,56.1210774 C314.905242,56.8473418 316.572917,57.4646573 318.588055,57.9730424 C320.603192,58.4814275 322.774644,59.0079614 325.102476,59.5526597 C327.430307,60.097358 329.601759,60.9325496 331.616897,62.0582595 C333.632035,63.1839693 335.29971,64.7272581 336.619973,66.6881721 C337.940235,68.6490861 338.600357,71.3362242 338.600357,74.749667 C338.600357,77.8726041 337.957607,80.5052732 336.672088,82.6477533 C335.386569,84.7902334 333.718894,86.5150855 331.669012,87.8223615 C329.619131,89.1296375 327.308706,90.0737671 324.737668,90.6547786 C322.16663,91.2357902 319.595631,91.5262916 317.024593,91.5262916 C313.133293,91.5262916 309.55474,90.9452888 306.288827,89.7832657 C305.009934,89.3282311 303.475319,88.4138139 301.684981,87.0400142 C299.587869,85.4308031 299.192338,82.4262359 300.801542,80.3291187 C300.93861,80.1504914 301.088112,79.9817587 301.248933,79.8241776 L302.546264,78.5529892 C304.336721,76.7986005 307.17749,76.7228568 309.058896,78.3793368 C309.817473,79.0472238 310.474949,79.5622033 311.031326,79.9242753 C312.872745,81.1226116 315.113683,81.7217707 317.754209,81.7217707 C318.657546,81.7217707 319.595613,81.6128327 320.568439,81.3949534 C321.541264,81.1770741 322.444588,80.8139473 323.278438,80.3055622 C324.112288,79.7971771 324.789781,79.1617052 325.310937,78.3991276 C325.832094,77.6365499 326.092668,76.7468893 326.092668,75.7301191 C326.092668,73.914458 325.432546,72.570889 324.112284,71.6993716 C322.792021,70.8278543 321.124346,70.1197571 319.109208,69.5750588 C317.09407,69.0303605 314.922618,68.521983 312.594787,68.0499111 C310.266955,67.5778392 308.095503,66.815273 306.080366,65.7621896 C304.065228,64.7091061 302.397553,63.2384427 301.07729,61.3501552 C299.757028,59.4618677 299.096906,56.8473549 299.096906,53.5065385 C299.096906,50.6014808 299.670169,48.0777497 300.816713,45.9352696 C301.963257,43.7927895 303.474588,42.0316247 305.350751,40.6517223 C307.226913,39.2718198 309.380994,38.2550649 311.813056,37.6014269 C314.245119,36.9477889 316.711889,36.6209748 319.213439,36.6209748 C322.548839,36.6209748 325.849446,37.220134 329.115359,38.4184703 C330.297927,38.8523807 331.61715,39.6558686 333.073029,40.8289339 C335.131386,42.4874389 335.455527,45.5005506 333.797021,47.5589058 C333.659094,47.7300853 333.509537,47.8915591 333.349414,48.0421802 L331.79083,49.5082707 C330.108734,51.090548 327.536704,51.2461111 325.676165,49.8781042 Z M354.122388,37.9282442 L356.432162,37.9282442 C359.075543,37.9282442 361.218427,40.0711281 361.218427,42.7145092 L361.218427,46.0986783 L361.218427,46.0986783 C362.538689,43.6293792 364.327965,41.4324622 366.794772,39.5078615 C369.261578,37.5832607 372.579557,36.6209748 376.748807,36.6209748 C384.600896,36.6209748 389.812381,39.8528031 392.383418,46.3165565 C394.190094,42.9757401 396.448404,40.5246344 399.158417,38.9631659 C401.868429,37.4016974 405.09955,36.6209748 408.851875,36.6209748 C412.187276,36.6209748 415.001478,37.2019776 417.294565,38.3640007 C419.587653,39.5260238 421.446416,41.1237816 422.87091,43.157322 C424.295404,45.1908625 425.320329,47.5693428 425.945717,50.2928344 C426.571104,53.0163261 426.883793,55.9394966 426.883793,59.0624337 L426.883793,85.4327572 C426.883793,88.0761383 424.74091,90.2190222 422.097528,90.2190222 L419.16237,90.2190222 C416.518988,90.2190222 414.376105,88.0761383 414.376105,85.4327572 L414.376105,60.5875813 L414.376105,60.5875813 C414.376105,58.9897996 414.237132,57.4465108 413.959182,55.9576687 C413.681232,54.4688266 413.194826,53.1615702 412.499951,52.0358604 C411.805076,50.9101505 410.867009,50.0204899 409.685721,49.3668519 C408.504434,48.7132139 406.975731,48.3863998 405.099569,48.3863998 C403.153919,48.3863998 401.503615,48.7676829 400.148609,49.5302606 C398.793602,50.2928383 397.681819,51.3095932 396.813225,52.580556 C395.944631,53.8515187 395.319253,55.3040258 394.937072,56.9381208 C394.55489,58.5722158 394.363803,60.2244426 394.363803,61.8948508 L394.363803,85.4327572 C394.363803,88.0761383 392.220919,90.2190222 389.577538,90.2190222 L386.642379,90.2190222 C383.998998,90.2190222 381.856114,88.0761383 381.856114,85.4327572 L381.856114,59.0624337 L381.856114,59.0624337 C381.856114,55.7942437 381.195992,53.1978873 379.87573,51.2732865 C378.555467,49.3486858 376.366643,48.3863998 373.309193,48.3863998 C371.224568,48.3863998 369.470035,48.7495266 368.045541,49.475791 C366.621047,50.2020555 365.439777,51.1824978 364.501695,52.4171473 C363.563614,53.6517968 362.886121,55.0679912 362.469196,56.665773 C362.052271,58.2635548 361.843812,59.9339379 361.843812,61.6769725 L361.843812,85.4327572 C361.843812,88.0761383 359.700928,90.2190222 357.057547,90.2190222 L354.122388,90.2190222 C351.479007,90.2190222 349.336123,88.0761383 349.336123,85.4327572 L349.336123,42.7145092 C349.336123,40.0711281 351.479007,37.9282442 354.122388,37.9282442 Z M447.096208,37.9282442 L450.031367,37.9282442 C452.674748,37.9282442 454.817632,40.0711281 454.817632,42.7145092 L454.817632,85.4327572 C454.817632,88.0761383 452.674748,90.2190222 450.031367,90.2190222 L447.096208,90.2190222 C444.452827,90.2190222 442.309943,88.0761383 442.309943,85.4327572 L442.309943,42.7145092 C442.309943,40.0711281 444.452827,37.9282442 447.096208,37.9282442 Z M440.53802,20.1711676 C440.53802,18.0650007 441.285,16.2312105 442.778981,14.669742 C444.272963,13.1082734 446.166469,12.3275509 448.459557,12.3275509 C450.752644,12.3275509 452.680894,13.0719608 454.244363,14.5608029 C455.807832,16.049645 456.589554,17.9197478 456.589554,20.1711676 C456.589554,22.4225873 455.807832,24.2926902 454.244363,25.7815323 C452.680894,27.2703744 450.752644,28.0147843 448.459557,28.0147843 C446.166469,28.0147843 444.272963,27.2340617 442.778981,25.6725932 C441.285,24.1111246 440.53802,22.2773344 440.53802,20.1711676 Z M501.724015,50.7527017 C501.209324,50.3499007 500.756807,50.0332029 500.366465,49.8026084 C498.768252,48.8584646 497.13532,48.3863998 495.46762,48.3863998 C493.174533,48.3863998 491.124682,48.822152 489.318007,49.6936693 C487.511331,50.5651866 485.965258,51.7271923 484.679739,53.1797211 C483.39422,54.63225 482.421409,56.3026332 481.761278,58.1909207 C481.101147,60.0792082 480.771086,62.0400928 480.771086,64.0736332 C480.771086,66.1071736 481.101147,68.0680582 481.761278,69.9563457 C482.421409,71.8446332 483.39422,73.5150164 484.679739,74.9675453 C485.965258,76.4200741 487.511331,77.5820798 489.318007,78.4535971 C491.124682,79.3251144 493.174533,79.7608666 495.46762,79.7608666 C497.413271,79.7608666 499.219919,79.3432708 500.887619,78.5080667 C501.224822,78.3391913 501.590789,78.109633 501.985519,77.8193918 C503.976049,76.3557839 506.7535,76.6477878 508.396118,78.4933681 L510.29712,80.6292595 C511.970458,82.5093922 511.802845,85.3900507 509.922728,87.0634064 C509.692111,87.2686619 509.441234,87.449952 509.173963,87.6044833 C509.173963,87.6044833 509.173963,87.6044833 509.173963,87.6044833 C507.541006,88.548627 505.890703,89.3111932 504.223002,89.8922048 C502.555302,90.4732163 500.957114,90.8908121 499.428388,91.1450047 C497.899663,91.3991972 496.57942,91.5262916 495.46762,91.5262916 C491.715295,91.5262916 488.171485,90.8726634 484.836085,89.5653874 C481.500684,88.2581114 478.616996,86.4061649 476.184933,84.0094923 C473.752871,81.6128196 471.824621,78.7259618 470.400127,75.3488322 C468.975633,71.9717026 468.263397,68.2133405 468.263397,64.0736332 C468.263397,59.9339259 468.975633,56.1755638 470.400127,52.7984342 C471.824621,49.4213046 473.752871,46.5344468 476.184933,44.1377741 C478.616996,41.7411015 481.500684,39.889155 484.836085,38.581879 C488.171485,37.274603 491.715295,36.6209748 495.46762,36.6209748 C498.664046,36.6209748 501.877795,37.2564466 505.108964,38.5274094 C506.340298,39.0117479 507.793001,39.877751 509.467073,41.1254188 C511.586566,42.7050479 512.024207,45.7037794 510.444574,47.8232694 C510.327427,47.9804524 510.200734,48.1302899 510.065211,48.271935 L508.132133,50.2923355 C506.431703,52.0695707 503.661027,52.2686207 501.724015,50.7527017 Z" id="prismic.io" fill="#040D3A"></path>
            <g id="symbol">
                <path d="M129.807505,68.4495085 L120.11048,58.731584 C119.341771,57.9612184 118.910054,56.9173723 118.910054,55.8290817 L118.910054,43.9339762 L118.910054,43.9339762 C118.910054,32.9437335 117.768202,28.958406 115.624044,24.9405376 C113.479885,20.9226691 110.33342,17.7694224 106.324192,15.6206429 C102.314964,13.4718633 98.3382069,12.3275509 87.3715991,12.3275509 L71.6869665,12.3275509 C71.2330786,12.3275509 70.8651297,11.9596021 70.8651297,11.5057142 C70.8651297,11.288056 70.9514731,11.0792868 71.1052149,10.9252137 L80.8028471,1.2066814 C81.5737213,0.434145873 82.6202487,2.00478861e-16 83.7116048,0 L89.159821,0 L89.159821,0 C103.781965,0 109.084307,1.52574993 114.429944,4.39078933 C119.775582,7.25582874 123.970869,11.4601576 126.829747,16.8173155 C129.688625,22.1744735 131.211094,27.4882435 131.211094,42.1419004 L131.211094,67.869008 C131.211094,68.3228959 130.843145,68.6908448 130.389257,68.6908448 C130.170986,68.6908448 129.96168,68.6040156 129.807505,68.4495085 Z" id="Combined-Shape" fill="#E55737"></path>
                <path d="M62.9045216,130.091539 L72.6021538,120.373007 C73.373028,119.600471 74.4195553,119.166325 75.5109114,119.166325 L87.3715991,119.166325 L87.3715991,119.166325 C98.3382069,119.166325 102.314964,118.022013 106.324192,115.873233 C110.33342,113.724454 113.479885,110.571207 115.624044,106.553339 C117.768202,102.53547 118.910054,98.5501426 118.910054,87.5599 L118.910054,71.8432354 C118.910054,71.3893475 119.278002,71.0213987 119.73189,71.0213987 C119.950162,71.0213987 120.159467,71.1082279 120.313642,71.262735 L130.010668,80.9806595 C130.779377,81.751025 131.211094,82.7948711 131.211094,83.8831617 L131.211094,89.3519758 L131.211094,89.3519758 C131.211094,104.005633 129.688625,109.319403 126.829747,114.676561 C123.970869,120.033719 119.775582,124.238047 114.429944,127.103087 C109.084307,129.968126 103.781965,131.493876 89.159821,131.493876 L63.4862731,131.493876 C63.0323852,131.493876 62.6644364,131.125927 62.6644364,130.672039 C62.6644364,130.454381 62.7507798,130.245612 62.9045216,130.091539 Z" id="Combined-Shape" fill="#F6C943"></path>
                <path d="M1.40358827,63.0443677 L11.100614,72.7622922 C11.8693229,73.5326578 12.30104,74.5765039 12.30104,75.6647945 L12.30104,87.5599 L12.30104,87.5599 C12.30104,98.5501426 13.4428916,102.53547 15.5870501,106.553339 C17.7312086,110.571207 20.8776741,113.724454 24.886902,115.873233 C28.8961298,118.022013 32.8728868,119.166325 43.8394945,119.166325 L59.5241272,119.166325 C59.9780151,119.166325 60.3459639,119.534274 60.3459639,119.988162 C60.3459639,120.20582 60.2596205,120.414589 60.1058787,120.568662 L50.4082465,130.287195 C49.6373723,131.05973 48.590845,131.493876 47.4994889,131.493876 L42.0512726,131.493876 L42.0512726,131.493876 C27.429129,131.493876 22.1267864,129.968126 16.7811493,127.103087 C11.4355121,124.238047 7.24022481,120.033719 4.38134678,114.676561 C1.52246874,109.319403 0,104.005633 0,89.3519758 L0,63.6248682 C7.21570881e-16,63.1709803 0.367948841,62.8030314 0.821836738,62.8030314 C1.04010796,62.8030314 1.24941344,62.8898606 1.40358827,63.0443677 Z" id="Combined-Shape" fill="#7B8FEC"></path>
                <path d="M68.3065721,1.40233719 L58.6089399,11.1208695 C57.8380657,11.893405 56.7915383,12.3275509 55.7001822,12.3275509 L43.8394945,12.3275509 L43.8394945,12.3275509 C32.8728868,12.3275509 28.8961298,13.4718633 24.886902,15.6206429 C20.8776741,17.7694224 17.7312086,20.9226691 15.5870501,24.9405376 C13.4428916,28.958406 12.30104,32.9437335 12.30104,43.9339762 L12.30104,59.6506408 C12.30104,60.1045287 11.9330912,60.4724775 11.4792033,60.4724775 C11.2609321,60.4724775 11.0516266,60.3856483 10.8974518,60.2311412 L1.20042601,50.5132167 C0.431717145,49.7428511 -6.06733638e-15,48.6990051 9.04813823e-16,47.6107145 L9.04813823e-16,42.1419004 L9.04813823e-16,42.1419004 C9.04813823e-16,27.4882435 1.52246874,22.1744735 4.38134678,16.8173155 C7.24022481,11.4601576 11.4355121,7.25582874 16.7811493,4.39078933 C22.1267864,1.52574993 27.429129,-1.77635684e-15 42.0512726,-1.77635684e-15 L67.7248206,-1.77635684e-15 C68.1787085,-6.8557383e-15 68.5466573,0.367948841 68.5466573,0.821836738 C68.5466573,1.03949486 68.4603139,1.24826408 68.3065721,1.40233719 Z" id="Combined-Shape" fill="#D77EE9"></path>
                <path d="M109.319061,47.9786001 L96.0957375,35.3135414 L96.0957375,35.3135414 C95.2210841,34.4370029 94.1980119,33.7998558 93.1075901,33.4020999 C92.2060034,33.0604477 91.2286038,32.873469 90.2076269,32.873469 L51.1760564,32.873469 C50.7221685,32.873469 50.3542197,32.5055202 50.3542197,32.0516323 C50.3542197,31.8338544 50.4406579,31.6249803 50.5945491,31.4708872 L60.3013221,21.7513761 C61.0720978,20.9795888 62.1181014,20.5459182 63.2088583,20.5459182 L94.3079736,20.5459182 L94.3079736,20.5459182 C103.366209,20.5459182 110.70936,27.9048949 110.70936,36.9826527 L110.70936,47.3850802 C110.70936,47.8389681 110.341411,48.206917 109.887524,48.206917 C109.675693,48.206917 109.472043,48.1251231 109.319061,47.9786001 Z" id="Combined-Shape" fill="#E55737"></path>
                <path d="M83.3315972,109.569313 L95.9734954,96.3132174 L95.9734954,96.3132174 C96.8481488,95.4366789 97.4839257,94.4114018 97.8808262,93.31863 C98.2217437,92.4151002 98.4083202,91.4355942 98.4083202,90.4124169 L98.4083202,51.2985014 C98.4083202,50.8446135 98.7762691,50.4766647 99.230157,50.4766647 C99.448548,50.4766647 99.6579583,50.563589 99.8121527,50.7182458 L109.510155,60.4453302 C110.278117,61.2155949 110.70936,62.2589168 110.70936,63.3466084 L110.70936,94.5216005 L110.70936,94.5216005 C110.70936,103.599358 103.366209,110.958335 94.3079736,110.958335 L83.9263383,110.958335 C83.4724504,110.958335 83.1045016,110.590386 83.1045016,110.136498 C83.1045016,109.925278 83.1858254,109.722168 83.3315972,109.569313 Z" id="Combined-Shape" fill="#F6C943"></path>
                <path d="M21.8920327,83.515276 L35.1153562,96.1803348 L35.1153562,96.1803348 C35.9900096,97.0568733 37.0130818,97.6940204 38.1035035,98.0917763 C39.0050903,98.4334285 39.9824899,98.6204071 41.0034668,98.6204071 L80.0350372,98.6204071 C80.4889251,98.6204071 80.856874,98.988356 80.856874,99.4422439 C80.856874,99.6600218 80.7704357,99.8688958 80.6165445,100.022989 L70.9097716,109.7425 C70.1389958,110.514287 69.0929923,110.947958 68.0022353,110.947958 L36.9031201,110.947958 L36.9031201,110.947958 C27.8448843,110.947958 20.5017334,103.588981 20.5017334,94.5112235 L20.5017334,84.108796 C20.5017334,83.6549081 20.8696822,83.2869592 21.3235701,83.2869592 C21.5354011,83.2869592 21.7390511,83.3687531 21.8920327,83.515276 Z" id="Combined-Shape" fill="#7B8FEC"></path>
                <path d="M47.8794964,21.9349397 L35.2375983,35.1910358 L35.2375983,35.1910358 C34.3629449,36.0675743 33.7271679,37.0928514 33.3302674,38.1856232 C32.98935,39.0891529 32.8027734,40.068659 32.8027734,41.0918363 L32.8027734,80.2057518 C32.8027734,80.6596397 32.4348246,81.0275885 31.9809367,81.0275885 C31.7625456,81.0275885 31.5531354,80.9406642 31.398941,80.7860074 L21.7009385,71.058923 C20.9329768,70.2886583 20.5017334,69.2453364 20.5017334,68.1576448 L20.5017334,36.9826527 L20.5017334,36.9826527 C20.5017334,27.9048949 27.8448843,20.5459182 36.9031201,20.5459182 L47.2847553,20.5459182 C47.7386432,20.5459182 48.1065921,20.913867 48.1065921,21.3677549 C48.1065921,21.5789747 48.0252683,21.7820856 47.8794964,21.9349397 Z" id="Combined-Shape" fill="#D77EE9"></path>
            </g>
        </g>
    </g>
</svg>