<svg width="128" height="43" viewBox="0 0 128 43" fill="none" xmlns="http://www.w3.org/2000/svg">
<path d="M24.2247 25.8387C26.6176 25.8387 28.5575 23.8989 28.5575 21.506C28.5575 19.1131 26.6176 17.1732 24.2247 17.1732C21.8318 17.1732 19.892 19.1131 19.892 21.506C19.892 23.8989 21.8318 25.8387 24.2247 25.8387Z" fill="#00D8FF"/>
<path fill-rule="evenodd" clip-rule="evenodd" d="M24.2248 12.6966C30.0421 12.6966 35.4463 13.5314 39.5209 14.9341C44.4304 16.6243 47.4489 19.1862 47.4489 21.506C47.4489 23.9234 44.2499 26.6451 38.9778 28.3918C34.992 29.7124 29.7469 30.4018 24.2248 30.4018C18.5632 30.4018 13.2019 29.7547 9.17114 28.3773C4.07154 26.6343 1 23.8774 1 21.506C1 19.205 3.88205 16.6629 8.72246 14.9753C12.8123 13.5494 18.3499 12.6966 24.224 12.6966H24.2248Z" stroke="#00D8FF" stroke-width="1.66272"/>
<path fill-rule="evenodd" clip-rule="evenodd" d="M16.556 17.1267C19.4622 12.0874 22.8849 7.82295 26.1358 4.99393C30.0525 1.58539 33.7798 0.250504 35.7893 1.40928C37.8835 2.61695 38.643 6.74795 37.5224 12.1875C36.676 16.3001 34.6521 21.1879 31.8934 25.9716C29.0649 30.8762 25.8261 35.1973 22.6196 38C18.5621 41.5469 14.6393 42.8305 12.5851 41.6458C10.5918 40.4971 9.82951 36.7298 10.7858 31.6935C11.5937 27.4383 13.6213 22.2152 16.555 17.1266L16.556 17.1267Z" stroke="#00D8FF" stroke-width="1.66272"/>
<path fill-rule="evenodd" clip-rule="evenodd" d="M16.5632 25.9845C13.6488 20.9508 11.6645 15.8548 10.8363 11.6256C9.83927 6.52996 10.5442 2.63396 12.5519 1.47182C14.644 0.260612 18.6023 1.66562 22.7552 5.35313C25.8952 8.14104 29.1194 12.3347 31.8861 17.1139C34.7228 22.0138 36.8488 26.9778 37.6758 31.1556C38.7223 36.4423 37.8753 40.4818 35.823 41.6698C33.8316 42.8226 30.1876 41.6021 26.3019 38.2583C23.0189 35.4333 19.5064 31.0681 16.5632 25.9844V25.9845Z" stroke="#00D8FF" stroke-width="1.66272"/>
<path fill-rule="evenodd" clip-rule="evenodd" d="M72.3193 32.5759L67.0086 24.5525C69.6926 24.3157 72.1111 22.3709 72.1111 18.818C72.1111 15.2028 69.5455 12.8891 65.9465 12.8891H58.0429V32.5609H60.4912V24.7445H64.4144L69.4283 32.5609L72.3193 32.5759ZM65.6535 22.6066H60.4925V15.0856H65.6535C67.9847 15.0856 69.5767 16.619 69.5767 18.8318C69.5767 21.0445 67.9835 22.609 65.6535 22.609V22.6066ZM81.4334 32.9286C83.7646 32.9286 85.6807 32.162 87.0968 30.747L86.0347 29.301C84.9127 30.4516 83.2622 31.0998 81.6403 31.0998C78.5736 31.0998 76.685 28.8584 76.508 26.1757H88.0393V25.6147C88.0393 21.3387 85.5024 17.9753 81.1953 17.9753C77.125 17.9753 74.1768 21.3088 74.1768 25.4376C74.1768 29.8919 77.2148 32.9174 81.4321 32.9174L81.4334 32.9286ZM85.8589 24.5513H76.5092C76.6276 22.3697 78.1298 19.8016 81.1691 19.8016C84.4141 19.8016 85.829 22.427 85.8589 24.5513ZM102.731 32.5746V22.7823C102.731 19.3317 100.225 17.9741 97.2157 17.9741C94.8845 17.9741 93.057 18.7408 91.5236 20.3339L92.5558 21.8673C93.8236 20.511 95.2111 19.8914 96.9215 19.8914C98.9859 19.8914 100.521 20.9822 100.521 22.8995V25.4651C99.3699 24.1374 97.748 23.5178 95.8008 23.5178C93.3823 23.5178 90.8143 25.0225 90.8143 28.2077C90.8143 31.3043 93.3798 32.9274 95.8008 32.9274C97.7181 32.9274 99.3412 32.2492 100.521 30.9515V32.5721L102.731 32.5746ZM96.5974 31.3355C94.533 31.3355 93.0869 30.039 93.0869 28.2388C93.0869 26.41 94.533 25.1123 96.5974 25.1123C98.1607 25.1123 99.6641 25.7019 100.521 26.8825V29.5665C99.6653 30.7458 98.1607 31.3355 96.5974 31.3355ZM113.427 32.9286C116.022 32.9286 117.556 31.8665 118.648 30.4516L117.173 29.0953C116.229 30.3631 115.02 30.9527 113.558 30.9527C110.52 30.9527 108.634 28.5929 108.634 25.4376C108.634 22.2824 110.521 19.9525 113.558 19.9525C115.033 19.9525 116.242 20.5135 117.173 21.81L118.648 20.4536C117.557 19.0374 116.022 17.9766 113.427 17.9766C109.18 17.9766 106.319 21.2215 106.319 25.4389C106.319 29.6862 109.18 32.9187 113.427 32.9187V32.9286ZM125.345 32.9286C126.641 32.9286 127.439 32.5447 128 32.0149L127.352 30.3631C127.056 30.6872 126.479 30.9527 125.847 30.9527C124.875 30.9527 124.401 30.1861 124.401 29.1239V20.2754H127.293V18.3294H124.401V14.4361H122.188V18.3294H119.828V20.2766H122.188V29.5977C122.188 31.7219 123.25 32.9311 125.345 32.9311V32.9286Z" fill="#00D8FF"/>
</svg>
