<svg fill="none" xmlns="http://www.w3.org/2000/svg" viewBox="0 0 135 40">
  <path fill-rule="evenodd" clip-rule="evenodd" d="M11.686 2.53v12.55H.372A.384.384 0 010 14.7c0-.118.028-.205.114-.264L11.686 2.53zM24.317 39.596V27.984h12.23L24.976 39.86a.392.392 0 01-.544 0c-.086-.059-.115-.176-.115-.264zM11.684 15.081h12.23c.2 0 .372.176.372.381v12.55h-11.83a.78.78 0 01-.772-.791V15.08z" fill="#7A4FF3"/>
  <path fill-rule="evenodd" clip-rule="evenodd" d="M11.684 2.53H35.8a.78.78 0 01.773.792v24.69H24.315V15.843a.78.78 0 00-.773-.791H11.684V2.53z" fill="#956FFF"/>
  <path d="M76.038 11.145H72.56v6.75c0 .552.145.977.414 1.232.27.254.683.403 1.2.446a24.16 24.16 0 001.76 0h.104c.041 0 .103.042.103.084v3.61c0 .042-.04.084-.082.084h-.062c-2.712.297-4.638.021-5.776-.828-1.139-.87-1.718-2.42-1.718-4.628v-6.75h-2.65c-.042 0-.083-.043-.083-.106V7.218c0-.043.041-.107.083-.107h2.65V4.437c0-.085.041-.149.103-.17l3.83-1.74c.041-.022.103 0 .124.042V7.11h3.478c.041 0 .103.043.103.107v3.82c-.02.064-.062.107-.103.107zm7.453-1.231c.372-1.04 1.014-1.826 1.883-2.336.808-.467 1.677-.743 2.65-.764h.187c.041 0 .103.043.103.085v4.394a.143.143 0 01-.145.149h-.02c-1.18-.106-2.236.149-3.168.807-.973.679-1.47 1.783-1.47 3.332v7.664c0 .042-.041.085-.103.085h-3.892c-.041 0-.104-.043-.104-.085V7.218c0-.043.042-.107.104-.107h3.892c.041 0 .103.043.103.107v2.696h-.02zm19.252-2.781h3.892c.041 0 .104.042.104.106v16.027c0 .043-.042.085-.104.085h-3.892c-.041 0-.103-.042-.103-.085v-1.825c-1.222 1.57-2.94 2.377-5.134 2.377-2.112 0-3.913-.828-5.403-2.484-1.491-1.655-2.257-3.693-2.257-6.092 0-2.399.745-4.437 2.257-6.071 1.51-1.635 3.312-2.484 5.403-2.484 2.215 0 3.912.785 5.134 2.377V7.24c0-.064.041-.106.103-.106zm-7.597 11.4c.828.848 1.863 1.273 3.126 1.273 1.262 0 2.297-.425 3.146-1.274.828-.849 1.242-1.953 1.242-3.29 0-1.338-.414-2.441-1.242-3.29-.828-.85-1.884-1.274-3.146-1.274-1.263 0-2.298.424-3.126 1.273-.828.85-1.222 1.954-1.222 3.29 0 1.338.394 2.442 1.222 3.291zm24.221-11.867c2.132 0 3.933.828 5.444 2.483 1.511 1.656 2.257 3.673 2.257 6.072 0 2.398-.746 4.436-2.257 6.071-1.511 1.656-3.312 2.484-5.444 2.484-2.216 0-3.913-.786-5.114-2.378v8.3c0 .043-.041.085-.083.085h-3.891c-.042 0-.104-.042-.104-.085V7.196c0-.042.041-.106.104-.106h3.891c.042 0 .083.043.083.106v1.826c1.201-1.57 2.898-2.356 5.114-2.356zm-3.892 11.866c.828.85 1.863 1.274 3.126 1.274 1.262 0 2.297-.425 3.146-1.274.828-.849 1.242-1.953 1.242-3.29 0-1.338-.414-2.441-1.242-3.29-.828-.85-1.884-1.274-3.146-1.274-1.263 0-2.298.424-3.126 1.273-.828.85-1.222 1.954-1.222 3.29 0 1.338.414 2.442 1.222 3.291zM131.498 5.18c-.683 0-1.263-.255-1.76-.765-.497-.509-.745-1.103-.745-1.804 0-.7.248-1.295.745-1.826.497-.509 1.077-.785 1.76-.785.704 0 1.283.255 1.78.785.497.51.745 1.126.745 1.826 0 .7-.248 1.295-.745 1.804-.497.51-1.076.765-1.78.765zm-2.008 18.065V7.218c0-.043.041-.107.103-.107h3.892c.041 0 .104.043.104.107v16.027c0 .042-.042.085-.104.085h-3.892c-.062 0-.103-.043-.103-.085z" fill="#252E71"/>
  <path fill-rule="evenodd" clip-rule="evenodd" d="M55.974 11.344c0 .43.284.795.873 1.075.59.28 1.31.516 2.14.731.85.215 1.68.473 2.531.795.852.323 1.55.84 2.14 1.592.589.752.873 1.677.873 2.795 0 1.677-.634 2.989-1.921 3.892-1.266.903-2.86 1.354-4.78 1.354-3.34 0-5.632-1.247-6.898-3.74 0-.022-.022-.044-.044-.087-.021-.043 0-.108.044-.129l3.602-1.57c.087-.043.196 0 .261.086.568 1.054 1.572 1.592 3.035 1.592 1.528 0 2.291-.474 2.291-1.42 0-.43-.283-.795-.873-1.075-.589-.28-1.31-.516-2.139-.73a23.101 23.101 0 01-2.532-.818 4.935 4.935 0 01-2.139-1.57c-.59-.709-.873-1.612-.873-2.687 0-1.613.611-2.903 1.812-3.828 1.2-.924 2.706-1.397 4.496-1.397 1.354 0 2.576.3 3.689.903a6.33 6.33 0 012.423 2.236c.022.043.065.108.13.215.023.043.023.108-.043.13l-3.623 1.59a.172.172 0 01-.175-.043c-.546-.817-1.353-1.225-2.4-1.225-.547 0-1.005.129-1.376.365-.35.215-.524.538-.524.968z" fill="#252E71"/>
</svg>