<svg width="69" height="42" viewBox="0 0 69 42" fill="none" xmlns="http://www.w3.org/2000/svg">
<rect width="69" height="42" fill="white"/>
<path fill-rule="evenodd" clip-rule="evenodd" d="M34.5 0C25.3 0 19.55 4.6 17.25 13.8C20.7 9.2 24.725 7.475 29.325 8.625C31.9496 9.28114 33.8255 11.1852 35.9018 13.2928C39.2844 16.7262 43.1992 20.7 51.75 20.7C60.95 20.7 66.7 16.1 69 6.9C65.55 11.5 61.525 13.225 56.925 12.075C54.3004 11.4189 52.4245 9.51484 50.3482 7.40715C46.9656 3.97376 43.0508 0 34.5 0ZM17.25 20.7C8.05 20.7 2.3 25.3 0 34.5C3.45 29.9 7.475 28.175 12.075 29.325C14.6996 29.9811 16.5755 31.8852 18.6518 33.9929C22.0344 37.4262 25.9492 41.4 34.5 41.4C43.7 41.4 49.45 36.8 51.75 27.6C48.3 32.2 44.275 33.925 39.675 32.775C37.0504 32.1189 35.1745 30.2148 33.0982 28.1071C29.7156 24.6738 25.8008 20.7 17.25 20.7Z" fill="url(#paint0_linear)"/>
<defs>
<linearGradient id="paint0_linear" x1="-1.91667" y1="8.63692e-07" x2="69" y2="40.8889" gradientUnits="userSpaceOnUse">
<stop stop-color="#2298BD"/>
<stop offset="1" stop-color="#0ED7B5"/>
</linearGradient>
</defs>
</svg>
